<!DOCTYPE svg PUBLIC "-//W3C//DTD SVG 20010904//EN" "http://www.w3.org/TR/2001/REC-SVG-20010904/DTD/svg10.dtd">
<svg version="1.0" xmlns="http://www.w3.org/2000/svg" width="398px" height="398px" viewBox="0 0 3980 3980" preserveAspectRatio="xMidYMid meet">
<g id="layer101" fill="#232323" stroke="none">
 <path d="M2630 3965 c-97 -15 -165 -38 -272 -91 l-87 -44 -73 10 c-169 22 -443 7 -623 -34 -367 -84 -728 -299 -981 -586 -196 -221 -354 -530 -420 -815 -41 -180 -56 -454 -34 -623 l10 -73 -42 -82 c-22 -45 -49 -107 -60 -137 -46 -133 -62 -412 -34 -601 63 -420 455 -812 875 -875 189 -28 468 -12 601 34 30 11 92 38 137 60 l82 42 73 -10 c108 -14 328 -12 453 5 833 111 1489 769 1601 1605 16 121 18 341 4 448 l-10 73 42 82 c22 45 49 107 60 137 67 192 63 580 -8 768 -137 366 -477 654 -833 708 -111 17 -354 16 -461 -1z m-424 -806 c267 -37 488 -143 613 -294 124 -150 175 -354 137 -545 -62 -302 -258 -435 -846 -576 -278 -66 -339 -83 -409 -115 -124 -56 -191 -136 -191 -229 0 -117 119 -225 287 -260 77 -17 274 -14 341 4 111 30 197 106 277 246 61 105 108 157 153 170 122 33 233 -18 280 -130 38 -91 -20 -261 -126 -368 -105 -106 -227 -171 -411 -219 -76 -20 -130 -26 -261 -30 -274 -9 -466 24 -650 114 -77 37 -110 60 -171 122 -127 127 -176 254 -166 431 9 157 57 262 168 364 128 119 319 196 698 282 289 65 387 102 468 177 62 57 85 107 87 187 1 92 -22 145 -94 214 -110 105 -230 141 -448 134 -109 -4 -148 -9 -192 -26 -128 -51 -213 -139 -287 -298 -19 -43 -47 -96 -61 -117 -96 -144 -338 -109 -383 56 -26 94 27 254 126 386 125 164 334 276 590 315 110 17 366 20 471 5z"/>
 </g>

</svg>