<!DOCTYPE svg PUBLIC "-//W3C//DTD SVG 20010904//EN" "http://www.w3.org/TR/2001/REC-SVG-20010904/DTD/svg10.dtd">
<svg version="1.0" xmlns="http://www.w3.org/2000/svg" width="513px" height="195px" viewBox="0 0 5130 1950" preserveAspectRatio="xMidYMid meet">
<g id="layer101" fill="#232323" stroke="none">
 <path d="M354 1048 c-345 -943 -354 -967 -354 -986 0 -9 48 -12 192 -10 l192 3 206 602 c113 332 207 603 210 603 3 0 99 -262 214 -583 115 -320 215 -592 223 -604 13 -22 18 -23 194 -23 138 0 181 3 185 13 2 7 -157 434 -354 947 l-359 935 -109 3 -109 3 -331 -903z"/>
 <path d="M2905 1938 c-303 -31 -504 -330 -482 -717 8 -139 28 -216 83 -329 81 -163 238 -308 382 -352 123 -38 342 -22 428 30 17 11 34 20 38 20 3 0 6 -133 6 -295 l0 -295 135 0 135 0 0 965 0 965 -135 0 -135 0 0 -42 c0 -39 -1 -40 -18 -25 -39 35 -127 66 -207 72 -44 3 -93 7 -110 9 -16 2 -70 -1 -120 -6z m337 -239 c29 -11 68 -32 86 -45 l32 -25 0 -379 0 -379 -31 -35 c-17 -19 -55 -47 -85 -62 -49 -24 -62 -26 -147 -22 -78 4 -101 9 -153 36 -171 87 -262 299 -234 544 23 205 102 319 253 367 87 28 209 28 279 0z"/>
 <path d="M4310 1931 c-128 -33 -252 -126 -334 -250 -91 -136 -122 -270 -113 -479 10 -236 88 -403 256 -545 115 -98 228 -137 402 -137 200 0 338 50 453 166 117 116 162 252 153 454 -2 58 -8 113 -12 123 -7 16 -40 17 -491 17 l-484 0 0 23 c1 44 30 160 54 212 34 76 97 139 175 178 63 31 70 32 191 32 142 0 196 -14 282 -71 28 -19 56 -33 63 -30 6 2 35 44 64 92 l53 88 -29 24 c-101 83 -259 123 -483 121 -92 0 -156 -6 -200 -18z m555 -908 c-16 -108 -86 -201 -184 -247 -39 -18 -65 -21 -161 -21 -112 0 -117 1 -178 34 -97 53 -165 143 -187 249 l-7 32 362 0 362 0 -7 -47z"/>
 <path d="M1802 993 l3 -938 175 0 175 0 3 938 2 937 -180 0 -180 0 2 -937z"/>
 </g>

</svg>