<!DOCTYPE svg PUBLIC "-//W3C//DTD SVG 20010904//EN" "http://www.w3.org/TR/2001/REC-SVG-20010904/DTD/svg10.dtd">
<svg version="1.0" xmlns="http://www.w3.org/2000/svg" width="1600px" height="1600px" viewBox="0 0 16000 16000" preserveAspectRatio="xMidYMid meet">
<g id="layer101" fill="#ffffff" stroke="none">
 <path d="M10865 15989 c-77 -5 -184 -13 -238 -19 -227 -26 -548 -110 -756 -200 -52 -22 -101 -40 -110 -40 -8 0 -154 -69 -325 -154 l-311 -155 -130 18 c-447 63 -1157 67 -1860 10 -524 -42 -1214 -206 -1740 -412 -370 -146 -539 -221 -758 -338 -71 -38 -134 -69 -141 -69 -7 0 -28 -10 -47 -23 -19 -12 -77 -47 -129 -76 -52 -29 -132 -78 -178 -108 -46 -30 -98 -61 -115 -69 -86 -37 -660 -448 -731 -523 -17 -17 -34 -31 -39 -31 -13 0 -135 -100 -215 -178 -37 -35 -83 -76 -102 -90 -39 -29 -419 -411 -546 -549 -104 -112 -194 -219 -194 -230 0 -4 -17 -26 -38 -49 -93 -98 -512 -692 -512 -725 0 -5 -19 -38 -42 -72 -116 -173 -469 -851 -513 -987 -10 -30 -31 -84 -48 -120 -151 -333 -333 -924 -411 -1331 -82 -430 -115 -819 -123 -1449 -6 -423 9 -742 48 -1015 l18 -130 -155 -311 c-85 -171 -154 -317 -154 -326 0 -8 -18 -57 -41 -109 -55 -128 -75 -184 -109 -319 -94 -368 -120 -662 -120 -1360 0 -672 19 -897 105 -1220 32 -120 116 -375 150 -455 7 -16 18 -50 26 -74 14 -47 115 -252 195 -395 27 -49 63 -115 81 -146 36 -66 102 -167 194 -292 35 -49 78 -108 94 -132 140 -206 685 -751 891 -891 24 -16 83 -59 132 -94 125 -92 226 -158 292 -194 31 -18 97 -54 146 -81 143 -80 348 -181 395 -195 24 -8 58 -19 74 -26 80 -34 335 -118 455 -150 323 -86 548 -105 1220 -105 698 0 992 26 1360 120 135 34 191 54 319 109 52 23 101 41 109 41 9 0 155 69 326 154 l311 155 130 -19 c226 -31 509 -45 945 -45 898 0 1280 48 2050 256 319 86 411 118 860 294 148 59 393 172 521 240 64 35 125 66 137 69 29 10 307 170 374 217 31 22 72 46 90 54 79 34 578 390 688 490 25 23 61 52 80 65 48 32 152 121 230 197 36 34 79 73 97 86 46 34 390 380 458 462 32 39 71 81 86 95 38 34 166 186 180 213 6 12 28 40 49 62 46 48 202 255 320 425 47 67 100 143 118 168 18 26 47 74 63 106 16 33 47 85 68 115 108 159 450 820 484 936 8 28 35 97 60 155 55 130 157 407 191 520 173 579 286 1119 306 1470 27 461 32 659 27 980 -6 375 -19 590 -47 800 l-19 135 155 311 c85 171 154 317 154 326 0 8 18 57 41 109 78 179 122 328 163 549 35 188 43 257 56 475 14 220 8 1124 -8 1330 -26 326 -133 782 -233 989 -10 22 -19 45 -19 52 0 17 -95 224 -135 294 -17 30 -62 111 -100 180 -83 151 -149 255 -240 375 -37 50 -71 99 -75 110 -34 82 -508 590 -700 750 -46 39 -113 96 -149 128 -37 32 -79 66 -96 74 -16 9 -70 46 -120 83 -117 87 -202 144 -274 183 -32 18 -98 54 -147 81 -143 80 -348 181 -395 195 -24 8 -57 19 -74 26 -80 34 -335 118 -455 150 -197 52 -388 81 -620 94 -228 13 -1068 13 -1285 0z m-2280 -3290 c300 -19 392 -30 563 -64 230 -46 428 -100 680 -184 251 -84 272 -92 442 -175 299 -146 389 -199 579 -340 53 -39 107 -79 121 -87 14 -9 95 -85 180 -170 220 -219 345 -391 475 -654 138 -280 206 -485 245 -735 60 -392 52 -666 -31 -1080 -43 -212 -218 -594 -358 -780 -90 -120 -232 -268 -341 -357 -106 -85 -366 -255 -475 -311 -94 -48 -334 -159 -395 -182 -30 -12 -59 -25 -65 -29 -23 -18 -417 -154 -740 -256 -199 -62 -278 -84 -515 -143 -713 -179 -891 -224 -930 -231 -293 -59 -893 -229 -1105 -313 -102 -41 -263 -127 -359 -191 -54 -37 -103 -67 -108 -67 -14 0 -162 -154 -230 -240 -70 -88 -108 -158 -138 -257 -19 -65 -21 -90 -18 -245 3 -167 5 -176 35 -251 73 -183 247 -381 458 -523 174 -118 211 -135 477 -219 250 -80 451 -100 916 -92 442 7 625 33 817 114 33 14 78 32 100 40 22 8 76 36 120 63 76 46 105 69 232 183 29 26 57 47 61 47 9 0 71 72 198 230 88 109 148 195 184 262 50 93 180 305 210 343 18 22 44 60 58 85 64 111 243 289 337 335 127 63 390 85 545 46 120 -31 186 -59 278 -121 88 -59 212 -164 212 -180 0 -5 24 -47 53 -92 96 -150 122 -238 121 -408 -2 -167 -45 -349 -130 -549 -25 -58 -53 -124 -62 -146 -24 -57 -163 -265 -243 -365 -71 -89 -178 -198 -289 -292 -85 -73 -319 -248 -332 -248 -5 0 -64 -32 -131 -72 -105 -62 -247 -134 -336 -170 -61 -25 -318 -114 -461 -159 -325 -103 -517 -139 -835 -160 -274 -17 -992 -23 -1185 -10 -91 6 -230 15 -310 21 -514 35 -1246 257 -1678 509 -39 22 -76 41 -82 41 -19 0 -124 74 -219 156 -50 43 -114 97 -141 119 -27 22 -62 57 -79 77 -16 21 -74 86 -130 145 -141 152 -294 380 -378 568 -32 72 -92 261 -117 375 -35 150 -49 328 -43 540 8 286 29 417 123 753 36 129 107 258 274 502 27 39 254 283 295 316 75 62 142 114 195 153 36 27 67 51 70 55 11 15 69 51 155 96 50 26 97 53 105 60 24 21 402 205 421 205 16 0 61 17 124 46 111 51 586 208 765 252 47 12 149 40 228 62 261 73 737 190 774 190 51 0 624 148 873 225 83 25 168 50 190 55 108 24 411 163 519 239 33 22 63 41 68 41 34 0 303 256 374 355 114 161 159 350 151 630 -10 361 -90 525 -397 822 -162 157 -459 342 -629 392 -357 106 -508 125 -981 126 -483 0 -700 -20 -885 -79 -44 -14 -87 -26 -96 -26 -21 0 -218 -102 -304 -157 -38 -25 -90 -63 -115 -84 -26 -21 -51 -39 -57 -39 -13 0 -176 -161 -259 -255 -130 -149 -265 -365 -401 -645 -217 -446 -226 -462 -348 -604 -47 -54 -169 -146 -194 -146 -7 0 -30 -9 -53 -21 -85 -43 -224 -71 -353 -71 -149 1 -263 28 -442 107 -82 36 -260 213 -308 304 -29 58 -72 223 -80 307 -11 135 35 416 100 602 33 97 131 305 218 467 105 197 257 394 460 597 92 92 171 168 175 168 5 0 48 32 98 70 94 75 290 210 304 210 4 0 37 17 72 39 80 48 325 172 398 201 130 51 477 164 615 200 173 45 447 98 544 105 562 41 1110 50 1506 24z"/>
 </g>

</svg>